<?xml version="1.0" encoding="utf-8"?>
<!-- Generator: Adobe Illustrator 13.0.2, SVG Export Plug-In . SVG Version: 6.00 Build 14948)  -->
<!DOCTYPE svg PUBLIC "-//W3C//DTD SVG 1.1//EN" "http://www.w3.org/Graphics/SVG/1.1/DTD/svg11.dtd">
<svg version="1.1" xmlns="http://www.w3.org/2000/svg" xmlns:xlink="http://www.w3.org/1999/xlink" x="0px" y="0px" width="800px"
	 height="600px" viewBox="0 0 800 600" enable-background="new 0 0 800 600" xml:space="preserve">
<g id="Layer_2" display="none">
	<rect x="-43.5" y="-23.5" display="inline" fill="#1A1A1A" width="906" height="666"/>
</g>
<g id="Layer_1">
	
		<ellipse transform="matrix(0.4941 0.8694 -0.8694 0.4941 437.6906 -46.5446)" fill="#5F5668" cx="258.84" cy="352.824" rx="16.081" ry="4.75"/>
	
		<ellipse transform="matrix(-0.8254 0.5645 -0.5645 -0.8254 643.1187 130.7767)" fill="#5F5668" cx="301.339" cy="164.824" rx="18.166" ry="4.358"/>
	
		<ellipse transform="matrix(-0.6405 0.7679 -0.7679 -0.6405 1129.0876 226.5102)" fill="#5F5668" cx="511.529" cy="377.517" rx="22.732" ry="4.846"/>
	<radialGradient id="SVGID_1_" cx="392.9766" cy="281.3164" r="149.4689" gradientUnits="userSpaceOnUse">
		<stop  offset="0.1209" style="stop-color:#81798D"/>
		<stop  offset="0.229" style="stop-color:#786D83"/>
		<stop  offset="0.3994" style="stop-color:#6D5F78"/>
		<stop  offset="0.5549" style="stop-color:#6A5B74"/>
		<stop  offset="0.5953" style="stop-color:#675871"/>
		<stop  offset="1" style="stop-color:#4C3D51"/>
	</radialGradient>
	<path fill="url(#SVGID_1_)" d="M471.833,154.169c44.4,25.591,73.76,73.933,73.76,127.18c0,16.622-3.141,29.818-6.094,40.487
		c-2.196,7.93-4.611,16.404-10.499,29.164c-1.143,2.476-2.5,9.5-2.5,9.5c-4.33-0.228-14.695,8.653-20.5,16.5c-6.931,9.368-9,18-9,18
		c-4.5,0-10.983,1.579-13.5,3.5c-19,14.5-51.22,29.07-90.523,29.07c-27.794,0-52.989-9.44-74.477-21.068
		C297.784,395.291,280.449,382.13,271,369c-1.441-2.003-5-2.75-5-2.75c0.5-5.25-7.244-17.737-8.25-19.75c-2.75-5.5-7.5-7.5-7.5-7.5
		c0.25-2.5,1.035-3.165,0.127-5.439c-6.472-16.215-10.017-33.817-10.018-52.212c0-22.189,2.909-43.674,12.14-62.513
		c7.074-14.436,18.789-27.134,30.157-38.524c1.842-1.846,3.51-6.645,3.51-6.645c3.333,0.25,12.106-5.221,15.833-7.917
		c9.333-6.75,13.79-12.069,13.79-12.069c3.417-0.667,6.442-1.333,9.71-3.181c22.7-12.831,45.25-14.75,67.477-15.373
		C421.677,134.323,448.895,140.948,471.833,154.169z"/>
	<path fill="#4C434F" d="M426.166,316.502c2.438,1.461,5.596,4.52,7.469,6.174c4.064,3.588,7.079,8.181,8.549,13.545
		c2.324,8.479,3.385,16.635-1.685,23.948c-3.042,4.389-10.327,8.055-15.333,11c-3.16,1.858-8.228,2.299-12,3.333
		c-8.353,2.289-17.465,1.094-24.667-1.333c-9.791-3.299-15.034-7.722-17.684-17.389c-2.428-8.86-1.568-19.11,4.017-26.611
		c4.992-6.704,15.032-9.784,24.333-12.333C409.67,313.957,418.188,311.723,426.166,316.502z"/>
	<path fill="#4C434F" d="M431.833,271.835c1.455,1.671,3.966,3.577,4.588,5.846c1.202,4.387,0.345,8.862-1.993,12.438
		c-2.054,3.14-5.249,5.585-9.193,6.667c-1.93,0.529-3.86-0.446-5.735-0.618c-3.996-0.366-6.387-0.744-9-3.667
		c-1.521-1.7-3.99-4.11-4.631-6.448c-0.693-2.531,0.064-3.819,0.631-6.219c0.566-2.4,2.063-5.777,3.667-7.667
		c2.015-2.373,4.746-2.442,8-3.333C424.28,267.16,428.004,267.438,431.833,271.835z"/>
	<path fill="#3D3744" d="M306.506,349.708c1.48,0.649,3.039,1.735,4.448,3.184c1.372,1.41,2.394,2.953,3.007,4.417
		c0.926,2.209,0.919,4.236-0.229,5.352c-0.759,0.738-1.902,0.967-3.222,0.751c-1.996-0.327-4.393-1.671-6.465-3.802
		c-1.372-1.41-1.933-3.977-2.546-5.44c-0.927-2.209-1.381-3.214-0.233-4.329C302.393,348.744,304.368,348.771,306.506,349.708z"/>
	<path fill="#3F3942" d="M293.625,238.634c1.509,2.42,2.281,5.671,2.14,9.226c-0.07,1.756-0.362,3.585-0.898,5.426
		c-1.382,4.742-3.884,6.389-7.034,8.551c-2.527,1.735-5.545,4.573-8.176,3.807c-3.959-1.153-5.654-3.646-6.157-8.807
		c-0.249-2.543-0.856-6.965-0.034-9.786c1.157-3.969,3.205-5.303,5.701-7.547c2.879-2.589,6.343-5.733,9.509-4.811
		C290.737,235.292,292.417,236.696,293.625,238.634z"/>
	<path fill="#38323A" d="M512.166,213.835c1.602,3.439,1.771,7.712,0.936,8.25c-0.868,0.56-3.076-1.192-5.678-4.287
		c-1.408-1.676-3.102-2.654-4.591-4.964c-1.445-2.24-2.503-5.509-3.438-7.44c-1.809-3.735-2.53-6.548-1.647-7.118
		c1.199-0.774,3.267-0.274,7.085,5.225c0.441,0.635,3.894,3.319,4.333,4C510.76,209.974,511.201,211.763,512.166,213.835z"/>
</g>
</svg>
